<svg width="38" height="23" viewBox="0 0 38 23" fill="none" xmlns="http://www.w3.org/2000/svg">
<path d="M23.0779 0.259888V0.260864C23.0783 0.261772 23.0794 0.263377 23.0798 0.264771C23.0809 0.26792 23.0818 0.272866 23.0837 0.278442C23.0877 0.289974 23.0938 0.306869 23.1013 0.328247C23.1165 0.37163 23.139 0.4353 23.1687 0.515747C23.2283 0.67711 23.3173 0.909324 23.4353 1.19446C23.6713 1.76487 24.0258 2.55184 24.4978 3.41711C25.4363 5.13748 26.866 7.2163 28.8035 8.50793C30.4474 9.6038 32.2045 10.34 33.6638 10.8234H0.00366211V11.6671H33.6638C32.2045 12.1505 30.4474 12.8866 28.8035 13.9825C26.8659 15.2742 25.4363 17.3529 24.4978 19.0734C24.0258 19.9387 23.6713 20.7256 23.4353 21.296C23.3173 21.5813 23.2283 21.8134 23.1687 21.9747C23.139 22.0553 23.1165 22.1189 23.1013 22.1622C23.0938 22.1837 23.0877 22.2005 23.0837 22.212C23.0818 22.2177 23.0809 22.2226 23.0798 22.2257C23.0793 22.2272 23.0782 22.2287 23.0779 22.2296V22.2306L23.8787 22.4982C23.8788 22.4978 23.8784 22.4963 23.8787 22.4952C23.8794 22.4931 23.8809 22.4892 23.8826 22.4845C23.8858 22.4749 23.8914 22.4599 23.8982 22.4406C23.9119 22.4014 23.9327 22.3425 23.9607 22.2667C24.0169 22.1145 24.1021 21.8926 24.2156 21.6183C24.4428 21.0691 24.7836 20.3109 25.238 19.4777C26.1528 17.8007 27.5026 15.8638 29.2712 14.6847C31.0779 13.4803 33.0437 12.7229 34.5642 12.2667C35.3228 12.0392 35.9673 11.8875 36.4207 11.7931C36.6471 11.7459 36.826 11.7135 36.947 11.6925C37.0075 11.682 37.0542 11.6748 37.0847 11.67C37.0995 11.6677 37.1107 11.6653 37.1179 11.6642C37.1212 11.6637 37.1241 11.6634 37.1257 11.6632H37.1277L37.0984 11.2452L37.1277 10.8273H37.1257C37.1241 10.827 37.1212 10.8268 37.1179 10.8263C37.1107 10.8252 37.0995 10.8228 37.0847 10.8204C37.0542 10.8156 37.0074 10.8084 36.947 10.798C36.826 10.777 36.6471 10.7446 36.4207 10.6974C35.9673 10.6029 35.3227 10.4513 34.5642 10.2238C33.0437 9.76761 31.0779 9.01015 29.2712 7.80579C27.5027 6.62671 26.1528 4.68975 25.238 3.01282C24.7836 2.1797 24.4428 1.42136 24.2156 0.872192C24.1021 0.598012 24.0169 0.376009 23.9607 0.223755C23.9327 0.148056 23.9119 0.0891353 23.8982 0.0499268C23.8914 0.0306544 23.8859 0.0155759 23.8826 0.00598145C23.881 0.00137035 23.8794 -0.00254425 23.8787 -0.00476074V-0.00769043L23.0779 0.259888Z" fill="white"/>
</svg>
